<svg width="147" height="50" viewBox="0 0 147 50" fill="none" xmlns="http://www.w3.org/2000/svg">
    <path fill-rule="evenodd" clip-rule="evenodd" d="M99.2785 26.6872V23.7979V23.7489H110.991C111.039 24.1407 111.039 24.5325 111.039 24.9732C111.039 31.6824 105.861 37.1183 99.3269 37.4611H98.6978H97.9718C91.4379 37.0693 86.3076 31.6334 86.3076 24.9732C86.3076 18.0682 91.8251 12.4854 98.6494 12.4854C101.892 12.4854 104.844 13.7586 107.071 15.8644L105.232 18.0682C103.344 16.2562 100.827 15.3747 98.6978 15.3747C93.6643 15.3747 89.1632 19.4394 89.1632 25.0222C89.1632 30.7029 93.8095 34.6697 98.6978 34.6697C103.054 34.6697 107.071 31.7803 108.087 26.6872H99.2785ZM127.883 37.0693H114.234V13.122H127.98V15.9624H116.993V22.7695H127.883V25.5609H116.993V34.2289H127.883V37.0693ZM79.2421 30.703L64.19 13.171H63.3672V37.0694H66.2227V19.7823L81.178 37.0694H82.0492V13.1221H79.2421V30.703ZM56.0596 37.0714H58.8668V13.1241H56.0596V37.0714ZM138.53 26.1486C140.273 26.0996 141.676 25.8548 142.741 25.3651C145.112 24.2877 146.322 22.3778 146.322 19.5864C146.322 18.0682 145.887 16.697 145.016 15.6196C144.145 14.4933 142.983 13.8077 141.483 13.4649C140.563 13.269 138.772 13.1221 136.207 13.1221H131.367V37.0694H134.174V26.1976H135.142L143.419 37.0204L143.515 37.1183H147L138.53 26.1486ZM134.126 23.4062V15.9624H137.998C139.547 15.9624 140.66 16.1094 141.337 16.3542C141.967 16.5991 142.499 17.0398 142.886 17.6275C143.273 18.2152 143.467 18.9008 143.467 19.6353C143.467 20.3699 143.273 21.0555 142.886 21.6922C142.16 22.8675 140.515 23.4552 138.046 23.4552L134.126 23.4062Z" fill="#222C31"/>
    <ellipse cx="24.9152" cy="24.9757" rx="24.9152" ry="24.9757" fill="#20B3C8"/>
    <path d="M25.3552 22.6637V28.0771H39.3273C37.9594 34.7701 32.0482 39.7899 24.9156 39.7899C16.8059 39.7899 10.2107 33.2445 10.2107 25.1735C10.2107 17.1026 16.8059 10.5572 24.9156 10.5572C28.9215 10.5572 32.4878 12.132 35.1748 14.6911L38.9365 10.754C35.3213 7.21069 30.3871 4.99609 24.9156 4.99609C13.9236 4.99609 4.9834 13.9529 4.9834 24.9767C4.9834 36.0005 13.9236 44.9573 24.9156 44.9573C35.9076 44.9573 44.8477 36.0005 44.8477 24.9767C44.8477 24.1893 44.7989 23.4019 44.7012 22.6637H25.3552Z" fill="white"/>
    <ellipse cx="24.9152" cy="24.9757" rx="24.9152" ry="24.9757" fill="#20B3C8"/>
    <path d="M25.3552 22.6637V28.0771H39.3273C37.9594 34.7701 32.0482 39.7899 24.9156 39.7899C16.8059 39.7899 10.2107 33.2445 10.2107 25.1735C10.2107 17.1026 16.8059 10.5572 24.9156 10.5572C28.9215 10.5572 32.4878 12.132 35.1748 14.6911L38.9365 10.754C35.3213 7.21069 30.3871 4.99609 24.9156 4.99609C13.9236 4.99609 4.9834 13.9529 4.9834 24.9767C4.9834 36.0005 13.9236 44.9573 24.9156 44.9573C35.9076 44.9573 44.8477 36.0005 44.8477 24.9767C44.8477 24.1893 44.7989 23.4019 44.7012 22.6637H25.3552Z" fill="white"/>
</svg>

