<?xml version="1.0" encoding="UTF-8"?><svg id="a" xmlns="http://www.w3.org/2000/svg" xmlns:xlink="http://www.w3.org/1999/xlink" viewBox="0 0 24 24"><defs><clipPath id="b"><path d="M20,11H4c-.55,0-1-.45-1-1v-6c0-.55.45-1,1-1h16c.55,0,1,.45,1,1v6c0,.55-.45,1-1,1ZM5,9h14v-4H5v4Z" fill="none" stroke-width="0"/></clipPath><clipPath id="c"><path d="M20,20.97H4c-.55,0-1-.45-1-1v-5.97c0-.55.45-1,1-1h16c.55,0,1,.45,1,1v5.97c0,.55-.45,1-1,1ZM5,18.97h14v-3.97H5v3.97Z" fill="none" stroke-width="0"/></clipPath></defs><path d="M20,11H4c-.55,0-1-.45-1-1v-6c0-.55.45-1,1-1h16c.55,0,1,.45,1,1v6c0,.55-.45,1-1,1ZM5,9h14v-4H5v4Z" fill="#fbbc04" stroke-width="0"/><path d="M20,20.97H4c-.55,0-1-.45-1-1v-5.97c0-.55.45-1,1-1h16c.55,0,1,.45,1,1v5.97c0,.55-.45,1-1,1ZM5,18.97h14v-3.97H5v3.97Z" fill="#34a853" stroke-width="0"/><path d="M9,20.24c-.55,0-1,.31-1-.24v-5.53c0-.55.45-1,1-1s1,.45,1,1v5.53c0,.55-.45.24-1,.24Z" fill="#34a853" stroke-width="0"/><path d="M9,10.7c-.55,0-1-.45-1-1v-5.56c0-.55.45-1,1-1s1,.45,1,1v5.56c0,.55-.45,1-1,1Z" fill="#fbbc04" stroke-width="0"/><g clip-path="url(#b)"><path d="M20,11h-1v-6H3v-1c0-.55.45-1,1-1h16c.55,0,1,.45,1,1v6c0,.55-.45,1-1,1Z" fill="#ea4335" stroke-width="0"/></g><g clip-path="url(#c)"><path d="M20,20.97h-1v-5.97H3v-1c0-.55.45-1,1-1h16c.55,0,1,.45,1,1v5.97c0,.55-.45,1-1,1Z" fill="#4285f4" stroke-width="0"/></g></svg>